<?xml version="1.0" encoding="UTF-8" standalone="no"?>
<!-- Created with Inkscape (http://www.inkscape.org/) -->

<svg
   xmlns:dc="http://purl.org/dc/elements/1.1/"
   xmlns:cc="http://creativecommons.org/ns#"
   xmlns:rdf="http://www.w3.org/1999/02/22-rdf-syntax-ns#"
   xmlns:svg="http://www.w3.org/2000/svg"
   xmlns="http://www.w3.org/2000/svg"
   xmlns:xlink="http://www.w3.org/1999/xlink"
   xmlns:sodipodi="http://sodipodi.sourceforge.net/DTD/sodipodi-0.dtd"
   xmlns:inkscape="http://www.inkscape.org/namespaces/inkscape"
   width="177.42195"
   height="37.016994"
   viewBox="0 0 46.942892 9.79408"
   version="1.1"
   id="svg8"
   inkscape:version="0.92.2 (5c3e80d, 2017-08-06)"
   sodipodi:docname="logoEdit.svg"
   inkscape:export-filename="E:\Lambda\WEB20\AdvancedCSS\ah\ah-5-2\img\logo.png"
   inkscape:export-xdpi="96"
   inkscape:export-ydpi="96">
  <defs
     id="defs2">
    <linearGradient
       inkscape:collect="always"
       id="linearGradient889">
      <stop
         style="stop-color:#000000;stop-opacity:1;"
         offset="0"
         id="stop885" />
      <stop
         style="stop-color:#000000;stop-opacity:0;"
         offset="1"
         id="stop887" />
    </linearGradient>
    <linearGradient
       inkscape:collect="always"
       id="linearGradient841">
      <stop
         style="stop-color:#ffffff;stop-opacity:1;"
         offset="0"
         id="stop837" />
      <stop
         style="stop-color:#ffffff;stop-opacity:0;"
         offset="1"
         id="stop839" />
    </linearGradient>
    <linearGradient
       inkscape:collect="always"
       xlink:href="#linearGradient841"
       id="linearGradient843"
       x1="44.878769"
       y1="74.064545"
       x2="94.643173"
       y2="74.064545"
       gradientUnits="userSpaceOnUse" />
    <linearGradient
       inkscape:collect="always"
       xlink:href="#linearGradient889"
       id="linearGradient893"
       x1="2.3387322"
       y1="78.587173"
       x2="44.006477"
       y2="78.587173"
       gradientUnits="userSpaceOnUse" />
  </defs>
  <sodipodi:namedview
     id="base"
     pagecolor="#ffffff"
     bordercolor="#666666"
     borderopacity="1.0"
     inkscape:pageopacity="0.0"
     inkscape:pageshadow="2"
     inkscape:zoom="0.98994949"
     inkscape:cx="223.25309"
     inkscape:cy="-70.537712"
     inkscape:document-units="px"
     inkscape:current-layer="layer1"
     showgrid="false"
     fit-margin-top="0"
     fit-margin-left="0"
     fit-margin-right="0"
     fit-margin-bottom="0"
     inkscape:window-width="1366"
     inkscape:window-height="705"
     inkscape:window-x="-8"
     inkscape:window-y="-8"
     inkscape:window-maximized="1"
     units="px" />
  <metadata
     id="metadata5">
    <rdf:RDF>
      <cc:Work
         rdf:about="">
        <dc:format>image/svg+xml</dc:format>
        <dc:type
           rdf:resource="http://purl.org/dc/dcmitype/StillImage" />
        <dc:title></dc:title>
      </cc:Work>
    </rdf:RDF>
  </metadata>
  <g
     inkscape:label="Layer 1"
     inkscape:groupmode="layer"
     id="layer1"
     transform="translate(10.018845,-75.864636)">
    <text
       xml:space="preserve"
       style="font-style:normal;font-variant:normal;font-weight:normal;font-stretch:normal;font-size:7.05555582px;line-height:1.25;font-family:sans-serif;-inkscape-font-specification:'sans-serif, Normal';font-variant-ligatures:normal;font-variant-caps:normal;font-variant-numeric:normal;font-feature-settings:normal;text-align:start;letter-spacing:0px;word-spacing:0px;writing-mode:lr-tb;text-anchor:start;fill:#030000;fill-opacity:1;stroke:none;stroke-width:0.26458332"
       x="1.5119094"
       y="82.730553"
       id="text827"><tspan
         sodipodi:role="line"
         id="tspan34"
         x="1.5119094"
         y="82.730553"
         style="font-style:normal;font-variant:normal;font-weight:normal;font-stretch:normal;font-size:7.05555582px;font-family:sans-serif;-inkscape-font-specification:'sans-serif, Normal';font-variant-ligatures:normal;font-variant-caps:normal;font-variant-numeric:normal;font-feature-settings:normal;text-align:start;writing-mode:lr-tb;text-anchor:start;fill:#030000;fill-opacity:1">Dog Stuff!</tspan></text>
    <path
       style="fill:#000000;fill-opacity:1;stroke-width:0.02430155"
       d="m -2.5625258,85.648935 c -0.1800126,-0.01893 -0.2847114,-0.0535 -0.7776492,-0.256844 -0.7265811,-0.299717 -1.0407265,-0.367126 -1.4905638,-0.319846 -0.3297172,0.03466 -0.5460128,0.09144 -1.0705556,0.281024 -0.6085342,0.219947 -0.8459595,0.278549 -1.1448691,0.282578 -0.2936963,0.004 -0.4354783,-0.03767 -0.6392689,-0.187689 -0.257186,-0.189333 -0.4178512,-0.511734 -0.4178512,-0.838509 0,-0.324278 0.1955742,-0.958179 0.4615563,-1.496 0.2567187,-0.519099 0.6578788,-1.108089 0.9298955,-1.365291 0.5053737,-0.477847 1.1286056,-0.75011 1.7814949,-0.778258 0.5935216,-0.02559 0.9865889,0.101064 1.5065727,0.485442 0.2341679,0.173098 0.667084,0.614225 0.8899627,0.906839 0.8789497,1.153952 1.258798,2.029345 1.1347946,2.615216 -0.034385,0.162452 -0.074054,0.239942 -0.1866213,0.364541 -0.221753,0.245453 -0.5574731,0.350888 -0.9768976,0.306797 z m -5.9985555,-3.348732 c -0.945314,-0.25526 -1.6109947,-1.379458 -1.427165,-2.410177 0.06815,-0.382134 0.258952,-0.649378 0.566542,-0.793524 0.124007,-0.05811 0.168615,-0.06551 0.394965,-0.06551 0.237703,0 0.26663,0.0055 0.422686,0.07933 0.8437337,0.399575 1.3768668,1.40936 1.2199491,2.310657 -0.048538,0.278795 -0.1264896,0.448895 -0.2853895,0.622759 -0.2384185,0.260869 -0.5467886,0.349572 -0.8915876,0.256465 z m 6.7781276,-0.160505 c -0.310408,-0.113254 -0.5519525,-0.397076 -0.6666014,-0.783274 -0.1451281,-0.488874 0.00783,-1.241292 0.3566653,-1.754351 0.3311856,-0.48711 0.8128228,-0.786328 1.26792433,-0.787697 0.581153,-0.0017 1.0188127,0.611752 0.976779,1.369225 -0.048345,0.871225 -0.58199,1.684772 -1.25969673,1.92042 -0.2070346,0.07199 -0.528925,0.089 -0.6750705,0.03568 z M -6.6976195,79.54581 c -0.3046188,-0.128487 -0.521543,-0.294535 -0.7399363,-0.566384 -0.5235189,-0.651669 -0.6712793,-1.779194 -0.3206731,-2.446978 0.1068002,-0.203419 0.3652977,-0.461405 0.5445443,-0.543467 0.3067966,-0.140456 0.6633607,-0.09212 1.0150545,0.137612 0.4996608,0.326382 0.8301401,0.942451 0.9151557,1.705996 0.083715,0.751867 -0.2108065,1.443082 -0.7177221,1.684439 -0.2088799,0.09945 -0.5003214,0.111499 -0.696423,0.02878 z m 2.9333632,0.0049 C -4.069095,79.445885 -4.2856667,79.248135 -4.4588934,78.916437 -4.6158,78.615995 -4.6604491,78.412413 -4.6602919,77.998162 c 1.821e-4,-0.393896 0.045836,-0.651905 0.1738038,-0.981451 0.2742996,-0.706412 0.8777993,-1.197909 1.4104427,-1.148682 0.3173549,0.02933 0.6541971,0.260597 0.8493865,0.583166 0.1176205,0.194378 0.19141,0.431102 0.2246268,0.720624 0.1070272,0.932866 -0.2804042,1.847572 -0.954851,2.254342 -0.2937104,0.177142 -0.5427192,0.215555 -0.8073732,0.124549 z"
       id="path856"
       inkscape:connector-curvature="0" />
  </g>
</svg>
